<svg width="1728" height="1117" viewBox="0 0 1728 1117" fill="none" xmlns="http://www.w3.org/2000/svg">
<rect width="1728" height="1117" fill="#E5E5E5"/>
<g clip-path="url(#clip0_32305_123)">
<rect width="1728" height="1117" fill="#110E1F"/>
<path d="M2060.51 1849.1L1457.58 1199.73L2066.15 1844.66L2060.51 1849.1Z" fill="#43C737" fill-opacity="0.2"/>
<path d="M421.963 1387.67L570.223 1351.93L718.715 1316.53L1015.56 1245.78L1312.41 1175.71L1460.99 1140.7L1609.49 1105.98C1609.92 1105.88 1610.29 1106.2 1610.35 1106.45C1610.44 1106.83 1610.25 1107.29 1609.83 1107.38L1461.54 1143L1313.08 1178.52L1016.37 1249.24L719.35 1319.22L570.768 1354.23L422.266 1388.95C421.844 1389.05 421.502 1388.86 421.411 1388.48C421.321 1388.09 421.541 1387.77 421.963 1387.67Z" fill="#43C737" fill-opacity="0.2"/>
<path d="M446.831 1345.85L586.932 1312.04L727.124 1278.61L1007.37 1211.78L1287.9 1145.56L1428.18 1112.52L1568.53 1079.73C1568.81 1079.66 1569.01 1079.89 1569.07 1080.14C1569.13 1080.4 1569.02 1080.56 1568.74 1080.63L1428.64 1114.44L1288.48 1148L1008.09 1214.85L727.699 1281.04L587.416 1314.08L447.074 1346.87C446.792 1346.94 446.45 1346.75 446.39 1346.5C446.329 1346.24 446.55 1345.92 446.831 1345.85Z" fill="#43C737" fill-opacity="0.2"/>
<path d="M471.699 1304.03L603.5 1272.18L735.392 1240.72L999.316 1177.75L1263.39 1115.42L1395.34 1084.21L1527.39 1053.39C1527.67 1053.32 1527.87 1053.54 1527.9 1053.67C1527.93 1053.8 1527.82 1053.96 1527.54 1054.03L1395.74 1085.88L1263.88 1117.47L999.952 1180.44L735.876 1242.76L603.894 1273.84L471.851 1304.67C471.569 1304.74 471.398 1304.64 471.368 1304.51C471.308 1304.26 471.418 1304.1 471.699 1304.03Z" fill="#43C737" fill-opacity="0.2"/>
<path d="M496.567 1262.21L620.069 1232.32L743.801 1202.79L991.267 1143.72L1238.71 1085.19L1362.54 1056.04L1486.42 1027.14C1486.56 1027.11 1486.56 1027.11 1486.59 1027.24C1486.62 1027.36 1486.65 1027.49 1486.51 1027.52L1362.84 1057.32L1239.14 1086.98L991.811 1146.02L744.195 1204.45L620.401 1233.73L496.658 1262.6C496.517 1262.63 496.347 1262.53 496.347 1262.53C496.316 1262.41 496.427 1262.24 496.567 1262.21Z" fill="#43C737" fill-opacity="0.2"/>
<path d="M521.295 1220.43L636.778 1192.44L752.21 1164.86L983.076 1109.72L1214.2 1055.05L1329.7 1027.73L1445.42 1000.76C1445.44 1000.85 1445.45 1000.89 1445.45 1000.89L1329.97 1028.88L1214.54 1056.46L983.53 1111.64L752.543 1166.27L637.05 1193.59L521.325 1220.55C521.305 1220.47 521.295 1220.43 521.295 1220.43Z" fill="#43C737" fill-opacity="0.2"/>
<path d="M546.132 1178.48L653.346 1152.58L760.62 1126.94L975.027 1075.68L1189.7 1024.91L1296.89 999.554L1404.28 974.423L1297.07 1000.32L1189.94 1025.93L975.39 1077.22L760.862 1127.96L653.527 1153.35L546.132 1178.48Z" fill="#43C737" fill-opacity="0.2"/>
<path d="M791.696 1588.66L832.203 1110.55L798.872 1588.86L791.696 1588.66Z" fill="#43C737" fill-opacity="0.2"/>
<path d="M982.149 1544.16L927.55 1087.86L989.334 1543.13L982.149 1544.16Z" fill="#43C737" fill-opacity="0.2"/>
<path d="M1172.77 1499.75L1022.9 1065.17L1179.66 1497.44L1172.77 1499.75Z" fill="#43C737" fill-opacity="0.2"/>
<path d="M1363.54 1455.3L1118.24 1042.48L1369.87 1451.91L1363.54 1455.3Z" fill="#43C737" fill-opacity="0.2"/>
<path d="M1554.41 1410.69L1213.59 1019.8L1560.08 1406.38L1554.41 1410.69Z" fill="#43C737" fill-opacity="0.2"/>
<path d="M1745.26 1365.96L1308.94 997.11L1750.32 1360.98L1745.26 1365.96Z" fill="#43C737" fill-opacity="0.2"/>
<path d="M1936.21 1321.06L1404.28 974.423L1940.42 1315.61L1936.21 1321.06Z" fill="#43C737" fill-opacity="0.2"/>
<path d="M1816.76 789.043C1817.16 790.707 1815.97 792.608 1814 793.074L99.4676 1198.61C97.4981 1199.07 95.5876 1197.9 95.1941 1196.24C94.7705 1194.45 95.985 1192.67 97.9544 1192.21L1812.49 786.677C1814.46 786.211 1816.34 787.252 1816.76 789.043Z" fill="#43C737" fill-opacity="0.2"/>
<path d="M128.25 1173.96L952.681 978.695L1777.06 783.843C1778.75 783.444 1780.46 784.39 1780.82 785.926C1781.18 787.461 1780.08 789.073 1778.39 789.472L954.103 984.709L129.551 1179.47C127.863 1179.87 126.294 1178.89 125.931 1177.35C125.568 1175.81 126.562 1174.36 128.25 1173.96Z" fill="#43C737" fill-opacity="0.2"/>
<path d="M158.656 1155.56L949.998 967.981L1741.66 781.137C1743.07 780.805 1744.44 781.562 1744.77 782.969C1745.07 784.249 1744.19 785.539 1742.78 785.871L951.329 973.611L159.806 1160.42C158.399 1160.75 157.001 1159.87 156.699 1158.59C156.396 1157.31 157.249 1155.89 158.656 1155.56Z" fill="#43C737" fill-opacity="0.2"/>
<path d="M189.092 1137.28L568.259 1047.19L947.456 957.234L1326.74 867.657L1706.09 778.337C1707.36 778.038 1708.55 778.7 1708.83 779.852C1709.1 781.003 1708.33 782.132 1707.06 782.431L1327.89 872.519L948.697 962.479L569.409 1052.06L190.061 1141.38C188.795 1141.68 187.598 1141.01 187.326 1139.86C187.053 1138.71 187.826 1137.58 189.092 1137.28Z" fill="#43C737" fill-opacity="0.2"/>
<path d="M219.498 1118.88L400.736 1075.6L582.176 1032.55L944.914 946.486L1307.77 860.931L1489.13 818.17L1670.66 775.504C1671.65 775.271 1672.67 775.839 1672.91 776.862C1673.13 777.758 1672.46 778.725 1671.48 778.958L1490.1 822.264L1308.8 865.281L946.064 951.348L583.235 1037.03L401.735 1079.83L220.315 1122.33C219.331 1122.56 218.305 1122 218.093 1121.1C217.851 1120.08 218.513 1119.11 219.498 1118.88Z" fill="#43C737" fill-opacity="0.2"/>
<path d="M249.904 1100.47L422.983 1059.13L596.093 1017.91L942.372 935.739L1288.63 854.11L1461.83 813.279L1635.09 772.703C1635.94 772.503 1636.79 772.977 1636.97 773.745C1637.15 774.512 1636.6 775.318 1635.76 775.518L1462.71 816.989L1289.57 858.076L943.461 940.345L597.061 1022.01L423.831 1062.71L250.57 1103.29C249.726 1103.49 248.871 1103.01 248.69 1102.24C248.508 1101.48 249.06 1100.67 249.904 1100.47Z" fill="#43C737" fill-opacity="0.2"/>
<path d="M280.31 1082.07L445.059 1042.56L609.899 1003.43L939.689 925.025L1269.63 847.255L1434.67 808.354L1599.66 769.87C1600.37 769.704 1601.05 770.082 1601.2 770.722C1601.35 771.362 1600.88 771.879 1600.18 772.045L1435.43 811.553L1270.48 850.838L940.688 929.247L610.716 1006.89L445.816 1045.76L280.855 1084.37C280.151 1084.54 279.468 1084.16 279.316 1083.52C279.165 1082.88 279.607 1082.23 280.31 1082.07Z" fill="#43C737" fill-opacity="0.2"/>
<path d="M310.575 1063.69L467.165 1026.12L623.816 988.794L937.147 914.277L1250.63 840.401L1407.4 803.59L1564.2 766.908C1564.63 766.808 1565.14 767.092 1565.26 767.604C1565.38 768.116 1565.05 768.6 1564.63 768.699L1408.04 806.277L1251.39 843.599L938.055 918.116L624.572 991.992L467.801 1028.8L310.999 1065.48C310.436 1065.62 309.893 1065.21 309.803 1064.82C309.682 1064.31 310.153 1063.79 310.575 1063.69Z" fill="#43C737" fill-opacity="0.2"/>
<path d="M340.951 1045.16L489.241 1009.55L637.733 974.153L934.605 903.53L1231.49 833.58L1380.1 798.699L1528.6 763.98C1529.02 763.88 1529.4 764.197 1529.49 764.581C1529.58 764.965 1529.36 765.287 1528.94 765.387L1380.65 801.002L1232.15 836.394L935.422 906.984L638.398 976.968L489.786 1011.85L341.284 1046.57C340.862 1046.67 340.49 1046.35 340.399 1045.97C340.339 1045.71 340.529 1045.26 340.951 1045.16Z" fill="#43C737" fill-opacity="0.2"/>
<path d="M371.327 1026.63L511.458 992.942L651.65 959.513L931.922 892.816L1212.49 826.725L1352.8 793.808L1493.14 761.018C1493.42 760.952 1493.63 761.175 1493.69 761.431C1493.75 761.686 1493.67 761.975 1493.38 762.042L1353.25 795.727L1213.06 829.156L932.649 895.887L652.224 961.944L511.942 994.989L371.569 1027.65C371.288 1027.72 370.946 1027.53 370.885 1027.27C370.825 1027.02 371.046 1026.69 371.327 1026.63Z" fill="#43C737" fill-opacity="0.2"/>
<path d="M401.703 1008.09L533.534 976.372L665.426 944.906L929.38 882.068L1193.49 819.871L1325.47 788.789L1457.54 758.09C1457.82 758.024 1457.99 758.118 1458.05 758.374C1458.09 758.502 1457.97 758.663 1457.69 758.73L1325.86 790.452L1193.97 821.918L930.016 884.755L665.91 946.953L533.927 978.035L401.854 1008.73C401.573 1008.8 401.402 1008.71 401.371 1008.58C401.311 1008.32 401.421 1008.16 401.703 1008.09Z" fill="#43C737" fill-opacity="0.2"/>
<path d="M432.078 989.561L555.61 959.802L679.342 930.265L926.838 871.321L1174.34 813.05L1298.17 783.897L1422.08 755.129C1422.22 755.096 1422.22 755.095 1422.25 755.223C1422.28 755.351 1422.31 755.479 1422.17 755.512L1298.5 785.305L1174.74 814.713L927.413 873.752L679.766 932.057L555.912 961.081L432.169 989.944C432.028 989.978 431.857 989.883 431.857 989.883C431.827 989.755 431.938 989.594 432.078 989.561Z" fill="#43C737" fill-opacity="0.2"/>
<path d="M462.313 971.06L577.826 943.198L693.259 915.625L924.155 860.607L1155.34 806.195L1270.87 779.006L1386.59 752.039C1386.59 752.039 1386.6 752.082 1386.62 752.167L1271.11 780.03L1155.68 807.603L924.64 862.654L693.592 917.032L578.069 944.222L462.344 971.188C462.344 971.188 462.333 971.146 462.313 971.06Z" fill="#43C737" fill-opacity="0.2"/>
<path d="M492.659 952.399L599.902 926.628L707.176 900.985L921.614 849.86L1136.34 799.341L1243.54 773.987L1350.96 748.983L1243.75 774.882L1136.58 800.364L922.007 851.523L707.418 902.008L600.084 927.396L492.659 952.399Z" fill="#43C737" fill-opacity="0.2"/>
<path d="M96.7186 1192.64L492.659 952.399L100.532 1198.08L96.7186 1192.64Z" fill="#43C737" fill-opacity="0.2"/>
<path d="M286.94 1147.78L588.036 929.84L291.397 1152.8L286.94 1147.78Z" fill="#43C737" fill-opacity="0.2"/>
<path d="M477.192 1103.05L683.383 907.153L482.262 1107.52L477.192 1103.05Z" fill="#43C737" fill-opacity="0.2"/>
<path d="M667.083 1058.68L778.76 884.594L673.317 1061.8L667.083 1058.68Z" fill="#43C737" fill-opacity="0.2"/>
<path d="M857.124 1014.94L874.137 862.035L864.331 1015.26L857.124 1014.94Z" fill="#43C737" fill-opacity="0.2"/>
<path d="M1048.05 971.81L969.484 839.348L1054.35 968.293L1048.05 971.81Z" fill="#43C737" fill-opacity="0.2"/>
<path d="M1239.67 927.838L1064.86 816.788L1243.85 922.257L1239.67 927.838Z" fill="#43C737" fill-opacity="0.2"/>
<path d="M1430.97 883.131L1160.24 794.229L1433.5 876.859L1430.97 883.131Z" fill="#43C737" fill-opacity="0.2"/>
<path d="M1621.89 838.108L1255.58 771.542L1623.63 831.618L1621.89 838.108Z" fill="#43C737" fill-opacity="0.2"/>
<path d="M1812.82 793.084L1350.96 748.983L1813.79 786.505L1812.82 793.084Z" fill="#43C737" fill-opacity="0.2"/>
<path d="M96.8549 13.1538L245.346 -22.2381L393.727 -57.4692L690.69 -127.709L987.664 -197.275L1136.28 -232.156L1284.87 -266.491C1285.29 -266.591 1285.63 -266.402 1285.72 -266.018C1285.81 -265.634 1285.59 -265.312 1285.17 -265.212L1136.85 -229.725L988.3 -194.588L691.507 -124.255L394.393 -54.6548L245.75 -19.902L97.1878 14.5613C96.7658 14.6612 96.424 14.4718 96.3332 14.088C96.2424 13.7041 96.4329 13.2536 96.8549 13.1538Z" fill="#43C737" fill-opacity="0.2"/>
<path d="M143.421 63.0713L283.582 29.5145L423.835 -3.65873L704.198 -69.972L984.854 -135.679L1125.2 -168.468L1265.6 -201.002C1265.88 -201.069 1266.08 -200.846 1266.14 -200.59C1266.2 -200.334 1266.12 -200.045 1265.84 -199.979L1125.65 -166.549L985.429 -133.248L704.924 -66.9014L424.379 -1.35597L284.067 31.5611L143.633 63.9672C143.352 64.0338 143.04 63.972 142.979 63.7161C142.889 63.3323 143.14 63.1379 143.421 63.0713Z" fill="#43C737" fill-opacity="0.2"/>
<path d="M189.957 112.861L321.818 81.2671L453.771 50.057L717.846 -12.2691L982.043 -74.083L1114.09 -104.909L1246.19 -135.479C1246.47 -135.546 1246.67 -135.323 1246.7 -135.196C1246.73 -135.068 1246.62 -134.906 1246.34 -134.84L1114.48 -103.246L982.527 -72.0357L718.482 -9.58216L454.255 52.1036L322.212 82.9302L190.108 113.501C189.827 113.567 189.656 113.473 189.595 113.217C189.565 113.089 189.675 112.927 189.957 112.861Z" fill="#43C737" fill-opacity="0.2"/>
<path d="M236.493 162.65L360.085 133.147L483.878 103.867L731.464 45.3062L979.092 -12.4533L1102.98 -41.3494L1226.95 -69.8625C1227.09 -69.8958 1227.09 -69.8957 1227.12 -69.7677C1227.15 -69.6398 1227.15 -69.6397 1227.01 -69.6064L1103.31 -39.9425L979.485 -10.7897L732.039 47.7377L484.271 105.53L360.387 134.427L236.583 163.034C236.443 163.067 236.272 162.973 236.242 162.845C236.242 162.845 236.352 162.684 236.493 162.65Z" fill="#43C737" fill-opacity="0.2"/>
<path d="M282.888 212.473L398.461 184.866L513.955 157.549L744.972 103.043L976.281 49.143L1091.87 22.2095L1207.65 -4.50127C1207.65 -4.50127 1207.66 -4.4585 1207.68 -4.3732C1207.7 -4.28791 1207.71 -4.24513 1207.71 -4.24513L1092.11 23.2334L976.614 50.5506L745.456 105.09L514.288 158.957L398.704 185.89L282.918 212.601C282.918 212.601 282.908 212.558 282.888 212.473Z" fill="#43C737" fill-opacity="0.2"/>
<path d="M329.393 262.134L436.697 236.619L544.062 211.36L758.62 160.746L973.471 110.739L1080.76 85.7689L1188.24 61.0213L1080.94 86.5367L973.743 111.891L759.014 162.409L544.304 212.384L436.879 237.387L329.393 262.134Z" fill="#43C737" fill-opacity="0.2"/>
<path d="M-271.964 -385.576L329.393 262.134L-277.458 -381.17L-271.964 -385.576Z" fill="#43C737" fill-opacity="0.2"/>
<path d="M-81.2906 -430.406L424.831 239.831L-87.1867 -426.444L-81.2906 -430.406Z" fill="#43C737" fill-opacity="0.2"/>
<path d="M109.414 -475.107L520.238 217.4L103.055 -471.846L109.414 -475.107Z" fill="#43C737" fill-opacity="0.2"/>
<path d="M300.088 -519.936L615.676 195.097L293.467 -517.154L300.088 -519.936Z" fill="#43C737" fill-opacity="0.2"/>
<path d="M490.792 -564.637L711.113 172.794L483.849 -562.59L490.792 -564.637Z" fill="#43C737" fill-opacity="0.2"/>
<path d="M681.356 -609.305L806.521 150.363L674.231 -608.025L681.356 -609.305Z" fill="#43C737" fill-opacity="0.2"/>
<path d="M871.919 -653.973L901.958 128.059L864.754 -653.494L871.919 -653.973Z" fill="#43C737" fill-opacity="0.2"/>
<path d="M1062.45 -698.769L997.396 105.756L1055.31 -698.835L1062.45 -698.769Z" fill="#43C737" fill-opacity="0.2"/>
<path d="M1252.88 -743.404L1092.8 83.3249L1245.83 -744.304L1252.88 -743.404Z" fill="#43C737" fill-opacity="0.2"/>
<path d="M1443.27 -788.166L1188.24 61.0213L1436.38 -789.644L1443.27 -788.166Z" fill="#43C737" fill-opacity="0.2"/>
<path d="M1568.34 -261.259C1568.76 -259.468 1567.55 -257.695 1565.58 -257.229L-148.956 148.303C-150.926 148.769 -152.806 147.728 -153.23 145.936C-153.623 144.273 -152.439 142.372 -150.469 141.906L1564.07 -263.626C1566.04 -264.092 1567.95 -262.923 1568.34 -261.259Z" fill="#43C737" fill-opacity="0.2"/>
<path d="M-109.35 168.793L714.94 -26.4429L1539.35 -221.167C1541.04 -221.566 1542.75 -220.619 1543.11 -219.084C1543.47 -217.549 1542.37 -215.937 1540.68 -215.538L716.362 -20.4293L-108.19 174.328C-109.878 174.727 -111.416 173.876 -111.779 172.34C-112.143 170.805 -111.179 169.226 -109.35 168.793Z" fill="#43C737" fill-opacity="0.2"/>
<path d="M-68.4025 195.586L722.94 8.0081L1514.63 -178.708C1516.04 -179.041 1517.44 -178.155 1517.74 -176.876C1518.04 -175.596 1517.19 -174.179 1515.78 -173.846L724.271 13.6376L-67.2827 200.32C-68.6895 200.653 -70.0571 199.895 -70.3597 198.616C-70.6926 197.208 -69.8092 195.919 -68.4025 195.586Z" fill="#43C737" fill-opacity="0.2"/>
<path d="M-27.3139 222.345L351.853 132.258L731.08 42.4252L1110.4 -47.0235L1489.78 -136.215C1491.04 -136.515 1492.24 -135.853 1492.51 -134.701C1492.78 -133.55 1492.01 -132.421 1490.75 -132.122L1111.55 -42.1612L732.321 47.6711L353.003 137.119L-26.3455 226.44C-27.6115 226.739 -28.8384 225.948 -29.0805 224.925C-29.3528 223.773 -28.58 222.645 -27.3139 222.345Z" fill="#43C737" fill-opacity="0.2"/>
<path d="M13.7444 248.977L195.013 205.832L376.452 162.782L739.221 76.8424L1102.11 -8.58524L1283.47 -51.3462L1465.03 -93.8842C1466.01 -94.1171 1467.04 -93.5492 1467.28 -92.5257C1467.49 -91.63 1466.83 -90.663 1465.85 -90.4301L1284.44 -47.2517L1103.14 -4.2346L740.37 81.7041L377.511 167.26L195.981 209.926L14.5615 252.431C13.5768 252.664 12.5511 252.096 12.3393 251.2C12.0972 250.177 12.7596 249.209 13.7444 248.977Z" fill="#43C737" fill-opacity="0.2"/>
<path d="M54.8329 275.736L227.912 234.393L401.052 193.306L747.361 111.26L1093.65 29.7587L1266.88 -10.9449L1440.14 -51.5198C1440.99 -51.7195 1441.84 -51.2466 1442.02 -50.4789C1442.2 -49.7113 1441.65 -48.905 1440.81 -48.7054L1267.73 -7.36205L1094.59 33.7245L748.42 115.738L401.99 197.272L228.79 238.103L55.4988 278.551C54.6547 278.751 53.8 278.277 53.6184 277.509C53.4369 276.742 53.9889 275.936 54.8329 275.736Z" fill="#43C737" fill-opacity="0.2"/>
<path d="M95.8913 302.367L260.671 262.988L425.51 223.863L755.361 145.71L1085.33 68.0689L1250.4 29.295L1415.4 -9.1887C1416.1 -9.35506 1416.78 -8.9765 1416.93 -8.33678C1417.08 -7.69705 1416.64 -7.0523 1415.94 -6.88593L1251.16 32.4937L1086.18 71.6511L756.33 149.804L426.358 227.446L261.427 266.186L96.4361 304.671C95.7327 304.837 95.049 304.458 94.8977 303.819C94.7464 303.179 95.1879 302.534 95.8913 302.367Z" fill="#43C737" fill-opacity="0.2"/>
<path d="M136.809 329.032L293.429 291.582L450.11 254.388L763.502 180.128L1077.01 106.379L1233.79 69.5689L1390.65 33.1424C1391.07 33.0425 1391.58 33.3262 1391.7 33.838C1391.83 34.3498 1391.49 34.8337 1391.07 34.9335L1234.45 72.3833L1077.77 109.578L764.379 183.838L450.866 257.586L294.095 294.397L137.233 330.823C136.67 330.956 136.157 330.672 136.036 330.16C135.915 329.649 136.387 329.132 136.809 329.032Z" fill="#43C737" fill-opacity="0.2"/>
<path d="M177.867 355.664L326.188 320.176L474.709 284.912L771.612 214.417L1068.59 144.85L1217.2 109.97L1365.73 75.3787C1366.15 75.2789 1366.52 75.5963 1366.62 75.9801C1366.71 76.364 1366.49 76.6864 1366.06 76.7862L1217.74 112.273L1069.22 147.537L772.429 217.872L475.345 287.599L326.732 322.48L178.17 356.943C177.748 357.043 177.406 356.853 177.315 356.47C177.224 356.086 177.445 355.763 177.867 355.664Z" fill="#43C737" fill-opacity="0.2"/>
<path d="M218.926 382.295L359.057 348.61L499.309 315.437L779.612 248.867L1060.27 183.16L1200.58 150.243L1340.98 117.71C1341.26 117.643 1341.44 117.738 1341.5 117.994C1341.56 118.249 1341.48 118.538 1341.2 118.605L1201.03 152.163L1060.81 185.464L780.338 251.938L499.853 317.739L359.541 350.657L219.138 383.191C218.856 383.257 218.514 383.067 218.454 382.811C218.393 382.556 218.644 382.361 218.926 382.295Z" fill="#43C737" fill-opacity="0.2"/>
<path d="M259.954 408.798L391.815 377.204L523.737 345.866L787.752 283.284L1051.95 221.471L1183.96 190.517L1316.07 159.946C1316.35 159.88 1316.52 159.975 1316.55 160.102C1316.61 160.358 1316.5 160.519 1316.22 160.586L1184.36 192.18L1052.4 223.39L788.388 285.971L524.222 347.913L392.209 378.867L260.105 409.438C259.824 409.504 259.653 409.41 259.592 409.154C259.562 409.026 259.672 408.864 259.954 408.798Z" fill="#43C737" fill-opacity="0.2"/>
<path d="M300.982 435.302L424.543 405.671L548.337 376.39L795.893 317.702L1043.46 259.686L1167.34 230.79L1291.29 202.149C1291.43 202.116 1291.43 202.116 1291.46 202.244C1291.49 202.372 1291.49 202.372 1291.35 202.405L1167.65 232.069L1043.88 261.478L796.438 320.005L548.73 378.054L424.876 407.078L301.073 435.685C300.932 435.719 300.761 435.624 300.731 435.496C300.731 435.496 300.841 435.335 300.982 435.302Z" fill="#43C737" fill-opacity="0.2"/>
<path d="M341.869 461.838L457.413 434.104L572.906 406.787L803.893 352.153L1035.14 297.997L1150.73 271.063L1266.48 244.225C1266.48 244.225 1266.49 244.267 1266.51 244.352L1150.97 272.087L1035.47 299.404L804.347 354.072L573.239 408.195L457.685 435.256L341.899 461.966C341.879 461.881 341.869 461.838 341.869 461.838Z" fill="#43C737" fill-opacity="0.2"/>
<path d="M382.897 488.342L490.171 462.699L597.505 437.311L812.033 386.57L1026.82 336.307L1134.08 311.209L1241.53 286.333L1134.26 311.977L1027.07 337.331L812.397 388.105L597.747 438.334L490.353 463.466L382.897 488.342Z" fill="#43C737" fill-opacity="0.2"/>
<path d="M-147.524 142.425L382.897 488.342L-151.871 147.912L-147.524 142.425Z" fill="#43C737" fill-opacity="0.2"/>
<path d="M43.2906 97.5631L478.305 465.91L38.2598 102.671L43.2906 97.5631Z" fill="#43C737" fill-opacity="0.2"/>
<path d="M234.166 52.9564L573.712 443.479L228.471 57.1407L234.166 52.9564Z" fill="#43C737" fill-opacity="0.2"/>
<path d="M425.011 8.22238L669.119 421.048L418.682 11.6106L425.011 8.22238Z" fill="#43C737" fill-opacity="0.2"/>
<path d="M615.776 -36.2229L764.527 398.617L608.893 -33.9196L615.776 -36.2229Z" fill="#43C737" fill-opacity="0.2"/>
<path d="M806.4 -80.6349L859.934 376.186L799.215 -79.611L806.4 -80.6349Z" fill="#43C737" fill-opacity="0.2"/>
<path d="M996.853 -125.142L955.341 353.754L989.677 -125.336L996.853 -125.142Z" fill="#43C737" fill-opacity="0.2"/>
<path d="M1187.31 -169.649L1050.75 331.323L1180.31 -170.966L1187.31 -169.649Z" fill="#43C737" fill-opacity="0.2"/>
<path d="M1377.76 -214.155L1146.13 308.764L1370.97 -216.468L1377.76 -214.155Z" fill="#43C737" fill-opacity="0.2"/>
<path d="M1568.01 -258.884L1241.53 286.333L1561.81 -261.876L1568.01 -258.884Z" fill="#43C737" fill-opacity="0.2"/>
<path d="M1693.35 267.283C1693.78 269.074 1692.56 270.847 1690.59 271.313L-23.9423 676.845C-25.9118 677.311 -27.7921 676.27 -28.2158 674.478C-28.6092 672.815 -27.4249 670.914 -25.4555 670.448L1689.08 264.916C1691.05 264.45 1692.96 265.619 1693.35 267.283Z" fill="#43C737" fill-opacity="0.2"/>
<path d="M10.0149 674.082L834.446 478.813L1658.86 284.089C1660.54 283.689 1662.25 284.636 1662.62 286.172C1662.98 287.707 1661.88 289.319 1660.19 289.718L835.868 484.826L11.3163 679.584C9.62821 679.984 8.08978 679.131 7.72664 677.596C7.36349 676.061 8.32684 674.482 10.0149 674.082Z" fill="#43C737" fill-opacity="0.2"/>
<path d="M45.5959 677.556L836.938 489.978L1628.63 303.262C1630.04 302.929 1631.41 303.687 1631.71 304.966C1632.04 306.373 1631.16 307.663 1629.75 307.996L838.269 495.607L46.7458 682.418C45.339 682.75 43.9413 681.865 43.6387 680.586C43.336 679.306 44.1891 677.889 45.5959 677.556Z" fill="#43C737" fill-opacity="0.2"/>
<path d="M81.1766 681.029L460.343 590.941L839.571 501.109L1218.89 411.66L1598.24 322.34C1599.5 322.041 1600.7 322.704 1600.97 323.855C1601.24 325.007 1600.47 326.135 1599.21 326.434L1220.04 416.523L840.811 506.355L461.524 595.931L82.1451 685.124C80.879 685.423 79.6824 684.76 79.4101 683.609C79.1377 682.457 79.9106 681.329 81.1766 681.029Z" fill="#43C737" fill-opacity="0.2"/>
<path d="M116.757 684.502L297.996 641.23L479.465 598.307L842.203 512.24L1205.06 426.685L1386.42 383.924L1567.98 341.385C1568.97 341.152 1569.99 341.721 1570.2 342.616C1570.45 343.64 1569.78 344.607 1568.8 344.84L1387.42 388.146L1206.09 431.035L843.353 517.102L480.494 602.657L298.994 645.451L117.575 687.957C116.59 688.19 115.564 687.622 115.352 686.726C115.11 685.703 115.773 684.735 116.757 684.502Z" fill="#43C737" fill-opacity="0.2"/>
<path d="M152.338 687.976L325.417 646.632L498.557 605.546L844.836 523.371L1191.1 441.742L1364.3 400.911L1537.59 360.464C1538.43 360.264 1539.29 360.737 1539.47 361.505C1539.65 362.272 1539.1 363.079 1538.25 363.278L1365.17 404.622L1192.03 445.708L845.895 527.849L499.495 609.512L326.265 650.215L153.004 690.79C152.16 690.99 151.305 690.517 151.124 689.749C150.942 688.982 151.494 688.175 152.338 687.976Z" fill="#43C737" fill-opacity="0.2"/>
<path d="M187.889 691.321L352.668 651.941L517.508 612.817L847.298 534.408L1177.27 456.766L1342.34 417.993L1507.33 379.509C1508.04 379.342 1508.72 379.721 1508.84 380.233C1508.99 380.872 1508.55 381.518 1507.85 381.684L1343.1 421.192L1178.12 460.349L848.297 538.63L518.325 616.272L353.425 655.14L188.434 693.624C187.73 693.79 187.047 693.412 186.895 692.772C186.744 692.132 187.185 691.487 187.889 691.321Z" fill="#43C737" fill-opacity="0.2"/>
<path d="M223.329 694.828L379.919 657.25L536.6 620.055L849.931 545.539L1163.44 471.791L1320.22 434.98L1477.05 398.426C1477.47 398.326 1477.98 398.61 1478.1 399.122C1478.22 399.633 1477.89 400.117 1477.47 400.217L1320.88 437.795L1164.2 474.989L850.839 549.377L537.326 623.126L380.554 659.936L223.722 696.491C223.16 696.624 222.647 696.34 222.526 695.828C222.435 695.444 222.907 694.927 223.329 694.828Z" fill="#43C737" fill-opacity="0.2"/>
<path d="M258.88 698.173L407.17 662.558L555.661 627.166L852.564 556.67L1149.48 486.848L1298.09 451.968L1446.62 417.376C1447.04 417.276 1447.42 417.594 1447.48 417.849C1447.57 418.233 1447.38 418.684 1446.95 418.784L1298.63 454.27L1150.14 489.663L853.381 560.125L556.327 629.98L407.715 664.861L259.182 699.452C258.76 699.552 258.418 699.363 258.328 698.979C258.237 698.595 258.458 698.272 258.88 698.173Z" fill="#43C737" fill-opacity="0.2"/>
<path d="M294.4 701.39L434.531 667.705L574.753 634.404L855.056 567.835L1135.65 501.872L1275.96 468.955L1416.34 436.293C1416.62 436.227 1416.82 436.449 1416.88 436.705C1416.94 436.961 1416.86 437.25 1416.58 437.317L1276.45 471.002L1136.23 504.303L855.782 570.906L575.328 636.835L435.015 669.752L294.642 702.414C294.361 702.481 294.019 702.291 293.958 702.035C293.898 701.779 294.119 701.457 294.4 701.39Z" fill="#43C737" fill-opacity="0.2"/>
<path d="M329.951 704.736L461.782 673.014L593.704 641.676L857.689 578.966L1121.83 516.897L1253.84 485.942L1385.91 455.244C1386.19 455.177 1386.36 455.272 1386.39 455.4C1386.45 455.656 1386.34 455.817 1386.06 455.883L1254.23 487.606L1122.31 518.943L858.324 581.653L594.188 643.723L462.175 674.677L330.102 705.375C329.821 705.442 329.649 705.347 329.589 705.091C329.559 704.963 329.669 704.802 329.951 704.736Z" fill="#43C737" fill-opacity="0.2"/>
<path d="M365.471 707.953L489.033 678.322L612.796 648.914L860.322 590.098L1107.86 531.954L1231.68 502.802L1355.63 474.161C1355.77 474.128 1355.77 474.128 1355.8 474.256C1355.83 474.384 1355.83 474.384 1355.69 474.417L1232.01 504.209L1108.25 533.617L860.866 592.4L613.189 650.577L489.335 679.601L365.562 708.337C365.421 708.37 365.25 708.275 365.25 708.275C365.22 708.147 365.33 707.987 365.471 707.953Z" fill="#43C737" fill-opacity="0.2"/>
<path d="M400.85 711.203L516.394 683.469L631.857 656.024L862.784 601.134L1094 546.85L1209.56 519.789L1325.31 492.95C1325.33 493.036 1325.34 493.078 1325.34 493.078L1209.8 520.812L1094.33 548.258L863.268 603.181L632.19 657.432L516.636 684.493L400.881 711.331C400.861 711.246 400.85 711.203 400.85 711.203Z" fill="#43C737" fill-opacity="0.2"/>
<path d="M436.371 714.421L543.614 688.65L650.949 663.263L865.416 612.265L1080.18 561.875L1187.43 536.776L1294.86 511.773L1187.61 537.544L1080.42 562.898L865.81 613.929L651.191 664.286L543.826 689.545L436.371 714.421Z" fill="#43C737" fill-opacity="0.2"/>
<path d="M-24.2695 670.438L436.371 714.421L-25.2387 677.017L-24.2695 670.438Z" fill="#43C737" fill-opacity="0.2"/>
<path d="M166.655 625.414L531.748 691.862L164.922 631.903L166.655 625.414Z" fill="#43C737" fill-opacity="0.2"/>
<path d="M357.611 580.518L627.155 669.431L355.053 586.663L357.611 580.518Z" fill="#43C737" fill-opacity="0.2"/>
<path d="M548.908 535.812L722.532 646.872L544.702 541.266L548.908 535.812Z" fill="#43C737" fill-opacity="0.2"/>
<path d="M740.497 491.712L817.909 624.312L734.199 495.228L740.497 491.712Z" fill="#43C737" fill-opacity="0.2"/>
<path d="M931.424 448.579L913.317 601.881L924.218 448.257L931.424 448.579Z" fill="#43C737" fill-opacity="0.2"/>
<path d="M1121.47 404.846L1008.69 579.322L1115.26 401.855L1121.47 404.846Z" fill="#43C737" fill-opacity="0.2"/>
<path d="M1311.36 360.472L1104.07 556.763L1306.32 356.125L1311.36 360.472Z" fill="#43C737" fill-opacity="0.2"/>
<path d="M1501.61 315.743L1199.48 534.332L1497.15 310.717L1501.61 315.743Z" fill="#43C737" fill-opacity="0.2"/>
<path d="M1691.83 270.886L1294.86 511.773L1688.02 265.438L1691.83 270.886Z" fill="#43C737" fill-opacity="0.2"/>
<path d="M37.006 934.527L90.4515 921.21L143.787 908.055L250.738 881.677C322.08 864.263 393.421 846.848 464.823 829.69C536.195 812.403 607.627 795.372 678.888 778.247L893.215 727.283L1107.66 676.831C1179.05 660.217 1250.54 643.442 1322.09 626.924C1393.61 610.277 1465.2 593.886 1536.78 577.495L1644.22 553.164L1697.79 541.032L1751.54 528.995L1698.1 542.311L1644.76 555.467L1537.81 581.845C1466.47 599.259 1395.13 616.674 1323.73 633.833C1252.38 651.247 1180.92 668.15 1109.66 685.275L895.333 736.239L680.886 786.691C609.503 803.305 538.041 820.208 466.457 836.599C394.934 853.245 323.351 869.636 251.767 886.027L144.331 910.357L90.7542 922.49L37.006 934.527Z" fill="#43C737" fill-opacity="0.2"/>
</g>
<defs>
<clipPath id="clip0_32305_123">
<rect width="1728" height="1117" fill="white"/>
</clipPath>
</defs>
</svg>
